<svg xmlns="http://www.w3.org/2000/svg" viewBox="0 0 492.34 285.39"><title>cradle</title><path d="M432.87,301.38a11.79,11.79,0,0,1-10.75-7,11.75,11.75,0,0,1-.24-9L473.78,150a11.79,11.79,0,0,1,22.72,2.91V153c.09,1.38.07,101.23.07,102.24a21.29,21.29,0,0,1-.66,5.89A11.85,11.85,0,0,1,492,266.3l-.1.07L439.6,299.3h0l-.31.19A11.81,11.81,0,0,1,432.87,301.38Z" transform="translate(-56.26 -141.33)" fill="#e5e5e5"/><path d="M484.79,142.92A11.29,11.29,0,0,1,496,153h0V153c.07,1.4.08,67.48.07,102.25a20.28,20.28,0,0,1-.63,5.69,11.2,11.2,0,0,1-3.75,5l-.06.05-52,32.73h0l-.61.39a11.3,11.3,0,0,1-6.14,1.82,11.07,11.07,0,0,1-4-.75,11.28,11.28,0,0,1-6.5-14.58l51.9-135.38a11.35,11.35,0,0,1,10.54-7.25m0-1a12.28,12.28,0,0,0-11.47,7.89L421.42,285.2a12.27,12.27,0,0,0,18.13,14.7h0l52.72-33.19v0a12.15,12.15,0,0,0,4.08-5.41c.77-2,.7-6.06.7-6.06s0-101.47-.07-102.29v-.09h0a12.29,12.29,0,0,0-12.2-10.92Z" transform="translate(-56.26 -141.33)"/><path d="M555.35,326.55" transform="translate(-56.26 -141.33)" fill="#fff" stroke="#000" stroke-miterlimit="10"/><path d="M426.3,357.7" transform="translate(-56.26 -141.33)" fill="#fff" stroke="#000" stroke-miterlimit="10"/><path d="M446.77,388.3" transform="translate(-56.26 -141.33)" fill="#fff" stroke="#000" stroke-miterlimit="10"/><path d="M548.09,318.22V276a6,6,0,0,0-12,0,21,21,0,0,1-9.61,17.64L423.76,358.33a4,4,0,0,0,.87,7.13h0a21.52,21.52,0,0,1,14.18,22.14,4,4,0,0,0,6,3.78l96.23-60.59a15,15,0,0,0,7-12.69" transform="translate(-56.26 -141.33)" fill="#e5e5e5" stroke="#000" stroke-miterlimit="10"/><line x1="486.06" y1="120.57" x2="486.06" y2="16.13" fill="#fff" stroke="#000" stroke-linecap="round" stroke-miterlimit="10" stroke-width="2"/><path d="M172,300.79a11.81,11.81,0,0,1-6.41-1.9l-.31-.19h0l-52.34-32.95,0-.05a11.75,11.75,0,0,1-3.92-5.19,21.72,21.72,0,0,1-.67-5.87c0-1,0-100.87.08-102.26h0v-.08a11.76,11.76,0,0,1,7.49-9.69,11.57,11.57,0,0,1,4.22-.79,11.84,11.84,0,0,1,11,7.57L183,284.78A11.8,11.8,0,0,1,176.18,300,11.67,11.67,0,0,1,172,300.79Z" transform="translate(-56.26 -141.33)" fill="#e5e5e5"/><path d="M120.06,141.33v1a11.35,11.35,0,0,1,10.54,7.25L182.5,285a11.3,11.3,0,0,1-6.5,14.58,11.15,11.15,0,0,1-4,.75,11.3,11.3,0,0,1-6.14-1.82l-.62-.38h0l-52-32.71-.09-.07a11.25,11.25,0,0,1-3.75-5,20.34,20.34,0,0,1-.64-5.71c0-34.75,0-100.83.07-102.19v-.07h0a11.28,11.28,0,0,1,11.21-10v-1m0,0a12.15,12.15,0,0,0-4.4.82,12.29,12.29,0,0,0-7.81,10.1h0v.1c-.09.82-.08,102.29-.08,102.29s-.06,4.06.7,6.06a12.25,12.25,0,0,0,4.09,5.41v0l52.72,33.19h0a12.27,12.27,0,0,0,18.14-14.7l-51.9-135.39a12.28,12.28,0,0,0-11.47-7.89Z" transform="translate(-56.26 -141.33)"/><path d="M49.5,326" transform="translate(-56.26 -141.33)" fill="#fff" stroke="#000" stroke-miterlimit="10"/><path d="M178.54,357.11" transform="translate(-56.26 -141.33)" fill="#fff" stroke="#000" stroke-miterlimit="10"/><path d="M158.07,387.71" transform="translate(-56.26 -141.33)" fill="#fff" stroke="#000" stroke-miterlimit="10"/><path d="M56.76,317.63v-42.2a6,6,0,0,1,12,0,21,21,0,0,0,9.6,17.64l102.72,64.67a4,4,0,0,1-.86,7.13h0A21.5,21.5,0,0,0,166,387a4,4,0,0,1-6,3.78L63.77,330.2a15,15,0,0,1-7-12.69" transform="translate(-56.26 -141.33)" fill="#e5e5e5" stroke="#000" stroke-miterlimit="10"/><line x1="6.27" y1="119.98" x2="6.27" y2="15.54" fill="#fff" stroke="#000" stroke-linecap="round" stroke-miterlimit="10" stroke-width="2"/><path d="M345,426.22a5.66,5.66,0,0,1-.82-.06,5.89,5.89,0,0,1-2.6-10.58L406.5,374.1l.24-.15a15.86,15.86,0,0,1,8.37-2.4,15.18,15.18,0,0,1,2.42.19,15.9,15.9,0,0,1,3,30.66l-.07,0-74.07,23.63-.08,0A6.46,6.46,0,0,1,345,426.22Z" transform="translate(-56.26 -141.33)" fill="#e5e5e5"/><path d="M415.11,372.05a15.4,15.4,0,0,1,5.27,29.88h0c-1.91.62-70.13,22.39-74,23.63l-.08,0a5.55,5.55,0,0,1-1.19.13,4.77,4.77,0,0,1-.76-.06,5.32,5.32,0,0,1-3.53-2.13,5.38,5.38,0,0,1-1-4,5.31,5.31,0,0,1,2.11-3.52l64.64-41.33.47-.29a15.4,15.4,0,0,1,8.11-2.33m0-1a16.3,16.3,0,0,0-8.63,2.48h0l-65.15,41.66h0a6.39,6.39,0,0,0,2.82,11.47,5.67,5.67,0,0,0,.91.07,6.59,6.59,0,0,0,1.4-.15h0l74.25-23.7h0a16.41,16.41,0,0,0-5.62-31.82Z" transform="translate(-56.26 -141.33)"/><circle cx="358.21" cy="246.52" r="5.23" fill="#fff" stroke="#000" stroke-miterlimit="10"/><circle cx="6.27" cy="5.36" r="3.31" fill="#fff" stroke="#000" stroke-miterlimit="10" stroke-width="2"/><circle cx="141.49" cy="205.81" r="16.5"/><path d="M186,344.78a12,12,0,0,1,11.76-9.63,12.16,12.16,0,0,1,3.43.5" transform="translate(-56.26 -141.33)" fill="none" stroke="#fff" stroke-linecap="round" stroke-miterlimit="10" stroke-width="2"/><circle cx="486.06" cy="5.95" r="3.31" fill="#fff" stroke="#000" stroke-miterlimit="10" stroke-width="2"/><path d="M189.62,403a15.89,15.89,0,0,1-15.22-11.37,15.73,15.73,0,0,1,1.26-12.11,15.91,15.91,0,0,1,8.28-7.26l.48-.18,72.05-26.59a6.05,6.05,0,0,1,1.66-.24,5.91,5.91,0,0,1,5.18,8.71,6,6,0,0,1-1.35,1.64l-.09.08-63.56,44.75,0,0A16,16,0,0,1,189.62,403Z" transform="translate(-56.26 -141.33)" fill="#e5e5e5"/><path d="M258.13,345.79a5.36,5.36,0,0,1,3.5,9.47l-.05.05L198,400l0,0a15.4,15.4,0,1,1-13.88-27.3l.34-.14L256.61,346a5.64,5.64,0,0,1,1.52-.22m0-1a6.29,6.29,0,0,0-1.83.27h0l-72.55,26.77h0a16.4,16.4,0,0,0,5.86,31.71,16.51,16.51,0,0,0,8.92-2.62h0l0,0c.1-.06,63.73-44.87,63.73-44.87h0a6.19,6.19,0,0,0,1.46-1.78,6.39,6.39,0,0,0-2.57-8.67,6.31,6.31,0,0,0-3-.78Z" transform="translate(-56.26 -141.33)"/><circle cx="134.1" cy="245.52" r="5.23" fill="#fff" stroke="#000" stroke-miterlimit="10"/></svg>