<svg xmlns="http://www.w3.org/2000/svg" viewBox="0 0 492.34 285.39">
  <path d="M376.61 160.05a11.79 11.79 0 01-10.75-7 11.75 11.75 0 01-.24-9l51.9-135.38a11.79 11.79 0 0122.72 2.91v.09c.09 1.38.07 101.23.07 102.24a21.29 21.29 0 01-.66 5.89 11.85 11.85 0 01-3.91 5.17l-.1.07-52.3 32.93-.31.19a11.81 11.81 0 01-6.42 1.89z" fill="#e5e5e5"/>
  <path d="M428.53 1.59a11.29 11.29 0 0111.21 10.08c.07 1.4.08 67.48.07 102.25a20.28 20.28 0 01-.63 5.69 11.2 11.2 0 01-3.75 5l-.06.05-52 32.73-.61.39a11.3 11.3 0 01-6.14 1.82 11.07 11.07 0 01-4-.75 11.28 11.28 0 01-6.5-14.58l51.9-135.38a11.35 11.35 0 0110.54-7.25m0-1a12.28 12.28 0 00-11.47 7.89l-51.93 135.34a12.27 12.27 0 0018.13 14.7l52.72-33.19a12.15 12.15 0 004.08-5.41c.77-2 .7-6.06.7-6.06s0-101.47-.07-102.29v-.09A12.29 12.29 0 00428.52.61z"/>
  <path d="M491.83 176.89v-42.22a6 6 0 00-12 0 21 21 0 01-9.61 17.64L367.5 217a4 4 0 00.87 7.13h0a21.52 21.52 0 0114.18 22.14 4 4 0 006 3.78l96.23-60.59a15 15 0 007-12.69" fill="#e5e5e5" stroke="#000" stroke-miterlimit="10"/>
  <path fill="#fff" stroke="#000" stroke-linecap="round" stroke-miterlimit="10" stroke-width="2" d="M486.06 120.57V16.13"/>
  <path d="M115.74 159.46a11.81 11.81 0 01-6.41-1.9l-.31-.19-52.34-32.95v-.05a11.75 11.75 0 01-3.92-5.19 21.72 21.72 0 01-.67-5.87c0-1 0-100.87.08-102.26v-.08a11.76 11.76 0 017.49-9.69 11.57 11.57 0 014.22-.79 11.84 11.84 0 0111 7.57l51.86 135.39a11.8 11.8 0 01-6.82 15.22 11.67 11.67 0 01-4.18.79z" fill="#e5e5e5"/>
  <path d="M63.8 0v1a11.35 11.35 0 0110.54 7.25l51.9 135.42a11.3 11.3 0 01-6.5 14.58 11.15 11.15 0 01-4 .75 11.3 11.3 0 01-6.14-1.82l-.62-.38-52-32.71-.09-.07a11.25 11.25 0 01-3.75-5 20.34 20.34 0 01-.64-5.71c0-34.75 0-100.83.07-102.19v-.07a11.28 11.28 0 0111.21-10v-1m0 0a12.15 12.15 0 00-4.4.82 12.29 12.29 0 00-7.81 10.1v.1c-.09.82-.08 102.29-.08 102.29s-.06 4.06.7 6.06a12.25 12.25 0 004.09 5.41L109 158.02a12.27 12.27 0 0018.14-14.7L75.24 7.93A12.28 12.28 0 0063.77.04z"/>
  <path d="M.5 176.3v-42.2a6 6 0 0112 0 21 21 0 009.6 17.64l102.72 64.67a4 4 0 01-.86 7.13h0a21.5 21.5 0 00-14.22 22.13 4 4 0 01-6 3.78L7.51 188.87a15 15 0 01-7-12.69" fill="#e5e5e5" stroke="#000" stroke-miterlimit="10"/>
  <path fill="#fff" stroke="#000" stroke-linecap="round" stroke-miterlimit="10" stroke-width="2" d="M6.27 119.98V15.54"/>
  <path d="M288.74 284.89a5.66 5.66 0 01-.82-.06 5.89 5.89 0 01-2.6-10.58l64.92-41.48.24-.15a15.86 15.86 0 018.37-2.4 15.18 15.18 0 012.42.19 15.9 15.9 0 013 30.66h-.07l-74.07 23.63h-.08a6.46 6.46 0 01-1.31.19z" fill="#e5e5e5"/>
  <path d="M358.85 230.72a15.4 15.4 0 015.27 29.88c-1.91.62-70.13 22.39-74 23.63h-.08a5.55 5.55 0 01-1.19.13 4.77 4.77 0 01-.76-.06 5.32 5.32 0 01-3.53-2.13 5.38 5.38 0 01-1-4 5.31 5.31 0 012.11-3.52l64.64-41.33.47-.29a15.4 15.4 0 018.11-2.33m0-1a16.3 16.3 0 00-8.63 2.48l-65.15 41.66a6.39 6.39 0 002.82 11.47 5.67 5.67 0 00.91.07 6.59 6.59 0 001.4-.15l74.25-23.7a16.41 16.41 0 00-5.62-31.82z"/>
  <circle cx="358.21" cy="246.52" r="5.23" fill="#fff" stroke="#000" stroke-miterlimit="10"/>
  <circle cx="6.27" cy="5.36" r="3.31" fill="#fff" stroke="#000" stroke-miterlimit="10" stroke-width="2"/>
  <circle cx="141.49" cy="205.81" r="16.5"/>
  <path d="M129.74 203.45a12 12 0 0111.76-9.63 12.16 12.16 0 013.43.5" fill="none" stroke="#fff" stroke-linecap="round" stroke-miterlimit="10" stroke-width="2"/>
  <circle cx="486.06" cy="5.95" r="3.31" fill="#fff" stroke="#000" stroke-miterlimit="10" stroke-width="2"/>
  <path d="M133.36 261.67a15.89 15.89 0 01-15.22-11.37 15.73 15.73 0 011.26-12.11 15.91 15.91 0 018.28-7.26l.48-.18 72.05-26.59a6.05 6.05 0 011.66-.24 5.91 5.91 0 015.18 8.71 6 6 0 01-1.35 1.64l-.09.08-63.56 44.75a16 16 0 01-8.69 2.57z" fill="#e5e5e5"/>
  <path d="M201.87 204.46a5.36 5.36 0 013.5 9.47l-.05.05-63.58 44.69a15.4 15.4 0 11-13.88-27.3l.34-.14 72.15-26.56a5.64 5.64 0 011.52-.22m0-1a6.29 6.29 0 00-1.83.27l-72.55 26.77a16.4 16.4 0 005.86 31.71 16.51 16.51 0 008.92-2.62c.1-.06 63.73-44.87 63.73-44.87a6.19 6.19 0 001.46-1.78 6.39 6.39 0 00-2.57-8.67 6.31 6.31 0 00-3-.78z"/>
  <circle cx="134.1" cy="245.52" r="5.23" fill="#fff" stroke="#000" stroke-miterlimit="10"/>
</svg>
